<svg width="24" height="24" viewBox="0 0 24 24" fill="none" xmlns="http://www.w3.org/2000/svg">
<path d="M8.66667 8.21429H10.3333V18.0714H8.66667V8.21429ZM13.6667 8.21429H15.3333V18.0714H13.6667V8.21429Z" fill="#24272D"/>
<path d="M2 3.28571V4.92857H3.66667V21.3571C3.66667 21.7929 3.84226 22.2107 4.15482 22.5188C4.46738 22.8269 4.89131 23 5.33333 23H18.6667C19.1087 23 19.5326 22.8269 19.8452 22.5188C20.1577 22.2107 20.3333 21.7929 20.3333 21.3571V4.92857H22V3.28571H2ZM5.33333 21.3571V4.92857H18.6667V21.3571H5.33333ZM8.66667 0H15.3333V1.64286H8.66667V0Z" fill="#24272D"/>
</svg>
