<svg width="24" height="24" viewBox="0 0 24 24" fill="none" xmlns="http://www.w3.org/2000/svg">
<path d="M19.0578 13.5828H20.4589V20.6286C20.4583 21.2076 20.228 21.7627 19.8186 22.1722C19.4091 22.5816 18.854 22.8119 18.275 22.8125H4.18391C3.60489 22.8119 3.04976 22.5816 2.64034 22.1722C2.23091 21.7627 2.00062 21.2076 2 20.6286V6.5375C2.00062 5.95848 2.23091 5.40336 2.64034 4.99393C3.04976 4.5845 3.60489 4.35421 4.18391 4.35359H11.2297V5.75469H4.18391C3.97637 5.75494 3.7774 5.83749 3.63065 5.98424C3.4839 6.13099 3.40134 6.32996 3.40109 6.5375V20.6286C3.40134 20.8361 3.4839 21.0351 3.63065 21.1819C3.7774 21.3286 3.97637 21.4112 4.18391 21.4114H18.275C18.4825 21.4112 18.6815 21.3286 18.8283 21.1819C18.975 21.0351 19.0576 20.8361 19.0578 20.6286V13.5828ZM9.67719 16.1019L11.0759 16.1816L11.2461 13.2031C11.3652 11.1153 12.2895 9.24922 13.783 8.08344C15.0104 7.12843 16.5206 6.60881 18.0758 6.60641H18.9195L16.7042 8.82312L17.6952 9.81406L21.6022 5.90703L17.6952 2L16.7042 2.99094L18.92 5.20625H18.0763C16.2082 5.20895 14.3942 5.83314 12.92 6.98047C11.1087 8.39469 9.98844 10.6339 9.84641 13.1248L9.67719 16.1019Z" fill="#A5ACBB"/>
</svg>
