<svg width="24" height="24" viewBox="0 0 24 24" fill="none" xmlns="http://www.w3.org/2000/svg">
<path d="M19.7656 5.04672C17.8217 3.10216 15.1866 2.00671 12.437 2.00003C9.68745 1.99335 7.04713 3.076 5.09375 5.0111V2.70297H3.6875V7.62485H8.60938V6.2186H5.87188C6.71211 5.32926 7.72503 4.62078 8.8486 4.13653C9.97218 3.65228 11.1828 3.40246 12.4062 3.40235C17.3708 3.40235 21.41 7.44157 21.41 12.4061C21.41 17.3706 17.3708 21.4098 12.4062 21.4098C7.44172 21.4098 3.4025 17.3706 3.4025 12.4061H2C1.99959 14.4646 2.60968 16.4769 3.7531 18.1886C4.89653 19.9003 6.52192 21.2344 8.42367 22.0222C10.3254 22.81 12.4181 23.0161 14.437 22.6144C16.4559 22.2127 18.3103 21.2212 19.7656 19.7655C20.7322 18.7991 21.499 17.6518 22.0222 16.3891C22.5453 15.1263 22.8146 13.7729 22.8146 12.4061C22.8146 11.0393 22.5453 9.68585 22.0222 8.42311C21.499 7.16038 20.7322 6.01307 19.7656 5.04672V5.04672Z" fill="#24272D"/>
</svg>
