<svg width="16" height="16" viewBox="0 0 16 16" fill="currentColor"
  xmlns="http://www.w3.org/2000/svg">
  <path fill-rule="evenodd" clip-rule="evenodd" d="M3.78421 0.0858985C2.29843 0.475375 1.57323 2.0967 2.26193 3.48946C2.47695 3.92432 3.03813 4.4434 3.45694 4.59491L3.5836 4.64072L3.58291 8.00002L3.58231 11.3593L3.38602 11.4445C1.92932 12.0762 1.53423 14.0883 2.64114 15.2373C4.45833 17.1234 7.50443 15.2137 6.61279 12.7473C6.4184 12.2095 5.8693 11.6391 5.34349 11.4287L5.19664 11.3699V9.85405V8.33808L5.67603 8.81711C6.84454 9.98485 8.27889 10.7839 9.73525 11.0785C9.95156 11.1222 10.1302 11.1611 10.1325 11.1649C10.1346 11.1687 10.2003 11.3029 10.2785 11.4631C11.3712 13.703 14.768 12.9021 14.7759 10.4027C14.7838 7.89226 11.3792 7.1089 10.239 9.35888L10.1497 9.53524L9.83274 9.44801C7.50115 8.80659 5.68586 7.00476 5.29069 4.93969C5.25963 4.77722 5.23418 4.64107 5.23418 4.63701C5.23418 4.63304 5.35661 4.56643 5.50614 4.48913C7.97389 3.21345 6.475 -0.619457 3.78421 0.0858985ZM4.69664 1.66581C5.29932 1.85615 5.32512 2.83389 4.73469 3.10879C4.02959 3.43709 3.34659 2.75408 3.67489 2.04899C3.85306 1.66624 4.23926 1.52137 4.69664 1.66581ZM12.6913 9.6732C13.4892 10.0065 13.2539 11.1857 12.3888 11.1897C11.9325 11.1919 11.5997 10.8599 11.5997 10.4027C11.5997 9.83015 12.1641 9.45301 12.6913 9.6732ZM4.74168 12.902C5.07895 13.0701 5.23133 13.3941 5.15419 13.779C5.01079 14.4944 4.00932 14.6187 3.68196 13.9618C3.33235 13.2602 4.04012 12.5524 4.74168 12.902Z" fill="black"/>
</svg>
