<svg width="24" height="24" viewBox="0 0 24 24" fill="currentColor"
  xmlns="http://www.w3.org/2000/svg">
  <path d="M5.40894 0.064601C3.37545 0.500273 2.37179 2.76943 3.43121 4.53612C3.73265 5.03875 4.35424 5.57506 4.85871 5.7677L5.00847 5.8249V12.0066V18.1884L4.85871 18.2456C3.50921 18.7609 2.69219 20.4201 3.10946 21.7977C3.91713 24.4645 7.44746 24.7946 8.68936 22.3195C9.44903 20.8054 8.70272 18.8421 7.14075 18.2456L6.99099 18.1884V16.054C6.99099 14.8801 7.00371 13.9196 7.01931 13.9196C7.03483 13.9196 7.09355 13.968 7.14971 14.027C7.82826 14.7401 9.07719 15.4588 10.1382 15.7468C10.997 15.9798 10.996 15.9798 13.1822 15.9971L15.1822 16.013L15.3284 16.3142C16.3413 18.3999 19.2146 18.5901 20.498 16.6566C21.8192 14.6659 20.3708 12.0066 17.9653 12.0066C16.8495 12.0066 15.6413 12.8175 15.2567 13.8246L15.1938 13.9892L13.3967 13.989C11.4527 13.9888 11.2309 13.9735 10.6264 13.7976C8.9748 13.3168 7.65506 11.976 7.18323 10.2994C7.02667 9.74307 7.01859 9.62659 7.00163 7.69079L6.98531 5.82706L7.13795 5.76874C7.82666 5.50579 8.51721 4.7978 8.80304 4.06149C9.64063 1.90441 7.66738 -0.419311 5.40894 0.064601ZM6.39972 2.09641C7.31907 2.51168 7.11243 3.87533 6.11237 3.99293C5.37462 4.07957 4.81375 3.34718 5.07766 2.64176C5.2659 2.13856 5.90733 1.87401 6.39972 2.09641ZM18.3995 14.0962C19.3189 14.5115 19.1122 15.8751 18.1122 15.9927C17.3744 16.0794 16.8135 15.347 17.0775 14.6415C17.2657 14.1384 17.9071 13.8738 18.3995 14.0962ZM6.4054 20.1021C7.05707 20.3903 7.19635 21.2481 6.6702 21.733C6.16469 22.199 5.3151 22.0061 5.07766 21.3715C4.76351 20.5318 5.59014 19.7415 6.4054 20.1021Z" />
</svg>
